<svg xmlns="http://www.w3.org/2000/svg" data-name="Layer 1" viewBox="0 0 48 48">
  <path fill-rule="evenodd" d="M23.985 48H24q-.21 0-.42-.004L24 48q-.28 0-.557-.006l-.34-.01-.073-.003q-.182-.007-.363-.017l-.124-.007-.262-.018-.172-.012q-.165-.013-.329-.028l-.096-.01a22.624 22.624 0 01-.368-.037q-.36-.04-.717-.091l-.156-.023-.218-.033-.215-.035-.176-.03q-.365-.064-.726-.139l-.103-.021-.22-.048q-.172-.038-.343-.079l-.25-.06-.129-.033q-.122-.03-.244-.063l-.268-.073-.088-.025q-.133-.037-.266-.077l-.165-.049-.225-.07-.16-.05-.176-.058-.056-.018q-.55-.183-1.088-.392l-.204-.08a21.182 21.182 0 01-.394-.161l-.134-.057-.261-.113q-.525-.231-1.037-.487a20.979 20.979 0 01-.158-.08q-.131-.066-.262-.135l-.058-.03q-.145-.076-.288-.154l-.183-.101-.19-.107-.1-.057-.226-.131-.27-.162q-.275-.167-.544-.34l-.112-.073q-.47-.306-.925-.634l-.106-.077q-.124-.09-.247-.183l-.075-.056a22.047 22.047 0 01-.147-.112q-.171-.131-.34-.265-.234-.187-.464-.379l-.13-.11q-.076-.064-.15-.129a27.96 27.96 0 01-.295-.258l-.161-.146q-.117-.106-.233-.214-.382-.356-.748-.729l-.152-.155-.053-.056a24 24 0 1134.42.226l.27-.28q-.16.167-.321.331-.577.584-1.194 1.126l-.092.08c-.079.07-.158.138-.238.206l-.072.06q-.125.106-.252.21l-.082.066q-.134.11-.272.218l-.03.023.03-.023q-.679.536-1.397 1.022l-.068.046q-.682.46-1.397.873l-.232.132a9.78 9.78 0 01-.273.15q-.13.072-.26.14l-.07.038-.255.131q-.259.133-.522.259-.35.168-.707.325-.281.124-.567.241-.125.052-.252.102l-.083.033-.243.094-.185.069-.227.083q-.401.144-.808.274l-.088.028-.26.08a16.46 16.46 0 01-.125.037q-.133.04-.268.078l-.185.052-.119.032q-.148.04-.297.078l-.153.039-.234.056-.153.036-.022.005q-.196.045-.392.087l-.094.02-.36.072-.056.01q-.138.027-.277.051l-.27.047-.128.02-.26.04c-.058.01-.117.018-.176.026l-.234.032-.172.022q-.456.056-.916.095l-.125.01-.287.022-.136.008q-.103.007-.208.012-.153.009-.307.015l-.11.004q-.16.006-.322.01l-.148.003Q24.21 48 24 48zM24 2A22 22 0 007.462 38.508a13.983 13.983 0 0112.507-8.457l.307-.003L27.594 30a14.297 14.297 0 0112.989 8.458A22 22 0 0024 2zm0 10a8 8 0 11-8 8 8 8 0 018-8z"/>
</svg>
